name ./resultDataOpenSim/trcMotMarkerGrf/sub06/grf-15-01.mot
datacolumns 19
datarows 25
range 1.53600000 1.63200000
endheader

                time	     ground_force_vx	     ground_force_vy	     ground_force_vz	     ground_force_px	     ground_force_py	     ground_force_pz	   l_ground_force_vx	   l_ground_force_vy	   l_ground_force_vz	   l_ground_force_px	   l_ground_force_py	   l_ground_force_pz	     ground_torque_x	     ground_torque_y	     ground_torque_z	   l_ground_torque_x	   l_ground_torque_y	   l_ground_torque_z	
          1.53600000	         99.12370712	        491.85006726	        -12.88881301	          1.01533774	          0.00000000	          0.04215613	          0.00000000	          0.00000000	          0.00000000	          0.00000000	          0.00000000	          0.00000000	          0.00000000	          0.85488442	          0.00000000	          0.00000000	          0.00000000	          0.00000000	
          1.54000000	        104.38016858	        497.52740811	        -13.69824313	          1.01490179	          0.00000000	          0.04233401	          0.00000000	          0.00000000	          0.00000000	          0.00000000	          0.00000000	          0.00000000	          0.00000000	          0.83290321	          0.00000000	          0.00000000	          0.00000000	          0.00000000	
          1.54400000	        109.72539949	        502.72108357	        -15.11480096	          1.01447987	          0.00000000	          0.04252385	          0.00000000	          0.00000000	          0.00000000	          0.00000000	          0.00000000	          0.00000000	          0.00000000	          0.76928209	          0.00000000	          0.00000000	          0.00000000	          0.00000000	
          1.54800000	        115.15883937	        507.46253628	        -17.07705647	          1.01406337	          0.00000000	          0.04271714	          0.00000000	          0.00000000	          0.00000000	          0.00000000	          0.00000000	          0.00000000	          0.00000000	          0.66563614	          0.00000000	          0.00000000	          0.00000000	          0.00000000	
          1.55200000	        120.65128654	        511.78070960	        -19.43066293	          1.01363302	          0.00000000	          0.04290451	          0.00000000	          0.00000000	          0.00000000	          0.00000000	          0.00000000	          0.00000000	          0.00000000	          0.53119868	          0.00000000	          0.00000000	          0.00000000	          0.00000000	
          1.55600000	        126.14638741	        515.66829266	        -21.95659625	          1.01318030	          0.00000000	          0.04307867	          0.00000000	          0.00000000	          0.00000000	          0.00000000	          0.00000000	          0.00000000	          0.00000000	          0.38190704	          0.00000000	          0.00000000	          0.00000000	          0.00000000	
          1.56000000	        131.57341953	        519.05717489	        -24.40919139	          1.01270956	          0.00000000	          0.04323698	          0.00000000	          0.00000000	          0.00000000	          0.00000000	          0.00000000	          0.00000000	          0.00000000	          0.23842393	          0.00000000	          0.00000000	          0.00000000	          0.00000000	
          1.56400000	        136.86266139	        521.80392186	        -26.55254129	          1.01222568	          0.00000000	          0.04338044	          0.00000000	          0.00000000	          0.00000000	          0.00000000	          0.00000000	          0.00000000	          0.00000000	          0.12324101	          0.00000000	          0.00000000	          0.00000000	          0.00000000	
          1.56800000	        141.96432144	        523.67632048	        -28.18131155	          1.01174794	          0.00000000	          0.04351037	          0.00000000	          0.00000000	          0.00000000	          0.00000000	          0.00000000	          0.00000000	          0.00000000	          0.05691507	          0.00000000	          0.00000000	          0.00000000	          0.00000000	
          1.57200000	        146.88390366	        524.34503109	        -29.12405684	          1.01129945	          0.00000000	          0.04362379	          0.00000000	          0.00000000	          0.00000000	          0.00000000	          0.00000000	          0.00000000	          0.00000000	          0.05364408	          0.00000000	          0.00000000	          0.00000000	          0.00000000	
          1.57600000	        151.69603501	        523.37387410	        -29.25844213	          1.01088204	          0.00000000	          0.04371053	          0.00000000	          0.00000000	          0.00000000	          0.00000000	          0.00000000	          0.00000000	          0.00000000	          0.11705933	          0.00000000	          0.00000000	          0.00000000	          0.00000000	
          1.58000000	        156.47757514	        520.21980493	        -28.57343792	          1.01046869	          0.00000000	          0.04375732	          0.00000000	          0.00000000	          0.00000000	          0.00000000	          0.00000000	          0.00000000	          0.00000000	          0.23803877	          0.00000000	          0.00000000	          0.00000000	          0.00000000	
          1.58400000	        161.18836338	        514.27682768	        -27.21428914	          1.01000050	          0.00000000	          0.04376514	          0.00000000	          0.00000000	          0.00000000	          0.00000000	          0.00000000	          0.00000000	          0.00000000	          0.39641887	          0.00000000	          0.00000000	          0.00000000	          0.00000000	
          1.58800000	        165.60271868	        504.96297779	        -25.41297504	          1.00948850	          0.00000000	          0.04374636	          0.00000000	          0.00000000	          0.00000000	          0.00000000	          0.00000000	          0.00000000	          0.00000000	          0.56674086	          0.00000000	          0.00000000	          0.00000000	          0.00000000	
          1.59200000	        169.34257762	        491.79666709	        -23.38695283	          1.00896523	          0.00000000	          0.04369259	          0.00000000	          0.00000000	          0.00000000	          0.00000000	          0.00000000	          0.00000000	          0.00000000	          0.72575989	          0.00000000	          0.00000000	          0.00000000	          0.00000000	
          1.59600000	        171.93272569	        474.41109184	        -21.32510661	          1.00842488	          0.00000000	          0.04359618	          0.00000000	          0.00000000	          0.00000000	          0.00000000	          0.00000000	          0.00000000	          0.00000000	          0.85861447	          0.00000000	          0.00000000	          0.00000000	          0.00000000	
          1.60000000	        172.80079404	        452.55222940	        -19.37987037	          1.00788529	          0.00000000	          0.04347050	          0.00000000	          0.00000000	          0.00000000	          0.00000000	          0.00000000	          0.00000000	          0.00000000	          0.96142869	          0.00000000	          0.00000000	          0.00000000	          0.00000000	
          1.60400000	        171.27367789	        426.15853368	        -17.60420209	          1.00743477	          0.00000000	          0.04332098	          0.00000000	          0.00000000	          0.00000000	          0.00000000	          0.00000000	          0.00000000	          0.00000000	          1.03949607	          0.00000000	          0.00000000	          0.00000000	          0.00000000	
          1.60800000	        166.66801633	        395.51680349	        -15.94690573	          1.00725518	          0.00000000	          0.04313032	          0.00000000	          0.00000000	          0.00000000	          0.00000000	          0.00000000	          0.00000000	          0.00000000	          1.10200707	          0.00000000	          0.00000000	          0.00000000	          0.00000000	
          1.61200000	        158.50334412	        361.37126345	        -14.32725701	          1.00763117	          0.00000000	          0.04288702	          0.00000000	          0.00000000	          0.00000000	          0.00000000	          0.00000000	          0.00000000	          0.00000000	          1.15617495	          0.00000000	          0.00000000	          0.00000000	          0.00000000	
          1.61600000	        146.72491402	        324.87104136	        -12.67228089	          1.00876315	          0.00000000	          0.04257064	          0.00000000	          0.00000000	          0.00000000	          0.00000000	          0.00000000	          0.00000000	          0.00000000	          1.20384763	          0.00000000	          0.00000000	          0.00000000	          0.00000000	
          1.62000000	        131.77890793	        287.36675783	        -10.91503554	          1.01071218	          0.00000000	          0.04215562	          0.00000000	          0.00000000	          0.00000000	          0.00000000	          0.00000000	          0.00000000	          0.00000000	          1.24192658	          0.00000000	          0.00000000	          0.00000000	          0.00000000	
          1.62400000	        114.51635100	        250.18206762	         -9.01977496	          1.01352303	          0.00000000	          0.04163839	          0.00000000	          0.00000000	          0.00000000	          0.00000000	          0.00000000	          0.00000000	          0.00000000	          1.26582270	          0.00000000	          0.00000000	          0.00000000	          0.00000000	
          1.62800000	         96.02349993	        214.46427017	         -7.00565498	          1.01724635	          0.00000000	          0.04104393	          0.00000000	          0.00000000	          0.00000000	          0.00000000	          0.00000000	          0.00000000	          0.00000000	          1.27377683	          0.00000000	          0.00000000	          0.00000000	          0.00000000	
          1.63200000	         77.47024143	        181.10669744	         -4.93483818	          1.02181802	          0.00000000	          0.04040703	          0.00000000	          0.00000000	          0.00000000	          0.00000000	          0.00000000	          0.00000000	          0.00000000	          1.26937782	          0.00000000	          0.00000000	          0.00000000	          0.00000000	
